HIERARCHY
ROOT Hips
{
    OFFSET 0.000000 0.000000 0.000000
    CHANNELS 6 Xposition Yposition Zposition Zrotation Xrotation Yrotation
    JOINT Spine
    {
        OFFSET -0.000000 0.080307 0.000000
        CHANNELS 3 Zrotation Xrotation Yrotation
        JOINT Spine1
        {
            OFFSET -0.000000 0.215056 0.000000
            CHANNELS 3 Zrotation Xrotation Yrotation
            JOINT Neck
            {
                OFFSET -0.000000 0.234643 0.000000
                CHANNELS 3 Zrotation Xrotation Yrotation
                JOINT Head
                {
                    OFFSET -0.000000 0.195383 0.025211
                    CHANNELS 3 Zrotation Xrotation Yrotation
                    End Site
                    {
                        OFFSET -0.000000 0.195871 0.000000
                    }
                }
            }
            JOINT LeftShoulder
            {
                OFFSET 0.039384 0.193292 -0.004513
                CHANNELS 3 Zrotation Xrotation Yrotation
                JOINT LeftArm
                {
                    OFFSET 0.126384 0.000000 0.000000
                    CHANNELS 3 Zrotation Xrotation Yrotation
                    JOINT LeftForeArm
                    {
                        OFFSET 0.285080 0.000000 0.000000
                        CHANNELS 3 Zrotation Xrotation Yrotation
                        JOINT LeftHand
                        {
                            OFFSET 0.240034 0.000000 0.000000
                            CHANNELS 3 Zrotation Xrotation Yrotation
                            End Site
                            {
                                OFFSET 0.146904 0.000000 0.000000
                            }
                        }
                    }
                }
            }
            JOINT RightShoulder
            {
                OFFSET -0.038960 0.193292 -0.004513
                CHANNELS 3 Zrotation Xrotation Yrotation
                JOINT RightArm
                {
                    OFFSET -0.126384 0.000000 0.000000
                    CHANNELS 3 Zrotation Xrotation Yrotation
                    JOINT RightForeArm
                    {
                        OFFSET -0.285080 0.000000 0.000000
                        CHANNELS 3 Zrotation Xrotation Yrotation
                        JOINT RightHand
                        {
                            OFFSET -0.240034 0.000000 0.000000
                            CHANNELS 3 Zrotation Xrotation Yrotation
                            End Site
                            {
                                OFFSET -0.146904 0.000000 0.000000
                            }
                        }
                    }
                }
            }
        }
    }
    JOINT LeftUpLeg
    {
        OFFSET 0.097936 0.000000 0.000000
        CHANNELS 3 Zrotation Xrotation Yrotation
        JOINT LeftLeg
        {
            OFFSET -0.000000 -0.416224 0.000000
            CHANNELS 3 Zrotation Xrotation Yrotation
            JOINT LeftFoot
            {
                OFFSET -0.000000 -0.490604 0.000000
                CHANNELS 3 Zrotation Xrotation Yrotation
                JOINT LeftToeBase
                {
                    OFFSET -0.000000 -0.063658 0.146904
                    CHANNELS 3 Zrotation Xrotation Yrotation
                    End Site
                    {
                        OFFSET -0.000000 0.000000 0.039174
                    }
                }
            }
        }
    }
    JOINT RightUpLeg
    {
        OFFSET -0.097936 0.000000 0.000000
        CHANNELS 3 Zrotation Xrotation Yrotation
        JOINT RightLeg
        {
            OFFSET -0.000000 -0.416224 0.000000
            CHANNELS 3 Zrotation Xrotation Yrotation
            JOINT RightFoot
            {
                OFFSET -0.000000 -0.490604 0.000000
                CHANNELS 3 Zrotation Xrotation Yrotation
                JOINT RightToeBase
                {
                    OFFSET -0.000000 -0.063658 0.146904
                    CHANNELS 3 Zrotation Xrotation Yrotation
                    End Site
                    {
                        OFFSET -0.000000 0.000000 0.039174
                    }
                }
            }
        }
    }
}
MOTION
Frames:    13
Frame Time:    0.010000
-0.830884    0.875113    -0.297360    -8.846087    1.630478    91.306427    -3.388271    -18.786760    0.358591    1.596128    8.682589    0.180061    3.072792    26.940128    0.472784    -3.624798    20.517904    2.721039    16.504553    3.558775    -0.580309    -30.998684    0.298929    -1.591198    -1.525696    -6.371259    -0.477872    -0.998560    -6.351815    -2.974118    -13.153187    2.942636    -1.720684    24.462669    -3.050510    -0.574987    -1.567575    -4.462341    0.715181    1.241173    -4.457962    -0.498839    7.434445    -5.179775    -1.004413    -1.948074    -0.973696    3.772099    -5.779497    -5.884561    8.003975    0.000000    0.000000    0.000000    -10.495856    -0.047263    0.302514    4.093640    -6.990517    -2.109245    1.279212    -6.732005    -15.951772    0.000000    0.000000    0.000000    
-0.830900    0.875100    -0.297352    -8.857862    1.626908    91.311302    -3.386808    -18.807091    0.371489    1.610781    8.729254    0.182771    3.055202    26.956327    0.481231    -3.614966    20.522264    2.720832    16.490648    3.557130    -0.611889    -31.008375    0.285586    -1.596564    -1.521791    -6.394465    -0.465110    -0.998168    -6.374721    -2.990314    -13.154645    2.937050    -1.733943    24.466499    -3.057555    -0.567072    -1.565074    -4.457121    0.718153    1.277195    -4.452933    -0.503053    7.445254    -5.181515    -0.991483    -1.834239    -1.051270    3.028099    -5.798192    -5.893539    8.414738    0.000000    0.000000    0.000000    -10.487579    -0.050038    0.309762    4.069049    -6.994549    -2.178681    1.548015    -6.902342    -15.670280    0.000000    0.000000    0.000000    
-0.830936    0.875106    -0.297371    -8.874378    1.626159    91.315208    -3.386326    -18.826130    0.383854    1.623723    8.763800    0.185501    3.041634    26.982628    0.479860    -3.597403    20.527529    2.709945    16.476763    3.554361    -0.629446    -31.012323    0.243131    -1.597455    -1.539893    -6.386154    -0.492638    -0.980356    -6.367437    -2.975205    -13.167797    2.944985    -1.733942    24.477310    -3.093488    -0.570086    -1.552443    -4.441140    0.731614    1.292288    -4.436999    -0.509525    7.441579    -5.199587    -1.002630    -1.824384    -1.054163    3.029568    -5.780545    -5.884627    8.417694    0.000000    0.000000    0.000000    -10.496782    -0.065117    0.303789    4.068562    -6.997840    -2.167674    1.146874    -6.714571    -15.871867    0.000000    0.000000    0.000000    
-0.830962    0.875112    -0.297361    -8.883284    1.623639    91.316620    -3.379961    -18.843754    0.394815    1.633464    8.806758    0.187560    3.010827    27.007200    0.504332    -3.575887    20.540903    2.718338    16.454174    3.540912    -0.643364    -31.016674    0.231472    -1.605763    -1.527015    -6.383296    -0.488634    -0.994223    -6.364140    -2.971515    -13.187272    2.939811    -1.732752    24.498606    -3.141701    -0.572941    -1.548639    -4.413098    0.757180    1.312105    -4.408823    -0.519020    7.450909    -5.211097    -1.013003    -1.834661    -1.051709    3.030404    -5.654140    -5.907630    8.443506    0.000000    0.000000    0.000000    -10.492884    -0.077975    0.314316    4.066171    -6.994192    -2.161189    1.162041    -6.724253    -15.893302    0.000000    0.000000    0.000000    
-0.830977    0.875108    -0.297350    -8.894197    1.622932    91.322708    -3.377363    -18.858681    0.402708    1.631909    8.834676    0.189909    3.022717    27.035305    0.498075    -3.595250    20.570637    2.723819    16.455215    3.537372    -0.645222    -31.032806    0.238075    -1.625073    -1.511791    -6.378985    -0.499829    -1.001202    -6.359719    -2.972103    -13.193721    2.940747    -1.725000    24.516050    -3.132323    -0.567596    -1.555840    -4.405202    0.751774    1.342275    -4.401199    -0.527512    7.447738    -5.226082    -1.004588    -1.829494    -1.051281    3.045681    -5.769823    -5.881310    8.405654    0.000000    0.000000    0.000000    -10.485465    -0.087399    0.277538    4.073905    -6.995759    -2.172214    1.562705    -6.898051    -15.655830    0.000000    0.000000    0.000000    
-0.830997    0.875091    -0.297349    -8.896112    1.623893    91.324677    -3.363521    -18.867483    0.411106    1.619078    8.865301    0.192550    3.012697    27.086910    0.504811    -3.589891    20.559532    2.726474    16.437832    3.542586    -0.652550    -31.020134    0.202427    -1.632122    -1.524697    -6.351412    -0.518246    -0.958626    -6.333532    -2.974260    -13.196211    2.953176    -1.716579    24.529848    -3.153815    -0.549539    -1.554331    -4.397882    0.766978    1.342982    -4.393977    -0.553291    7.445586    -5.244634    -0.998410    -1.957768    -0.958927    3.691273    -5.766061    -5.895288    8.069229    0.000000    0.000000    0.000000    -10.491682    -0.092350    0.287081    4.067256    -6.990710    -2.162024    1.152679    -6.723661    -15.886247    0.000000    0.000000    0.000000    
-0.831011    0.875086    -0.297327    -8.902053    1.626019    91.322975    -3.354306    -18.876820    0.416870    1.605507    8.886841    0.194904    3.015132    27.135160    0.504635    -3.611004    20.550711    2.734598    16.438437    3.552290    -0.647953    -31.031406    0.203170    -1.645415    -1.507529    -6.324462    -0.537464    -0.950023    -6.306982    -2.972517    -13.197927    2.950852    -1.699706    24.536190    -3.147845    -0.539323    -1.543844    -4.411931    0.775587    1.354276    -4.408130    -0.562343    7.447956    -5.254406    -0.995169    -1.963768    -0.951410    3.674156    -5.771599    -5.906935    8.091009    0.000000    0.000000    0.000000    -10.487700    -0.110622    0.289673    4.082666    -7.000072    -2.148259    1.206196    -6.734848    -15.942054    0.000000    0.000000    0.000000    
-0.831020    0.875082    -0.297312    -8.906658    1.623295    91.324379    -3.340047    -18.884232    0.422436    1.593233    8.909276    0.196478    2.998179    27.154480    0.526572    -3.601420    20.599764    2.750104    16.430349    3.546389    -0.633877    -31.021034    0.194019    -1.658016    -1.511649    -6.279874    -0.517549    -0.602511    -6.271013    -2.992730    -13.196392    2.948797    -1.698825    24.751822    -1.441428    -0.141666    -2.076849    -5.243339    -0.092543    1.717486    -5.246692    -0.112455    7.453215    -5.243013    -1.002876    -1.838604    -1.042611    3.006553    -5.760916    -5.887732    8.450739    0.000000    0.000000    0.000000    -10.487453    -0.108234    0.299241    4.075392    -6.984264    -2.149087    1.546474    -6.910566    -15.706561    0.000000    0.000000    0.000000    
-0.831021    0.875066    -0.297273    -8.904319    1.620028    91.324532    -3.324034    -18.882765    0.420504    1.574624    8.934251    0.196254    2.995390    27.271376    0.488692    -3.569971    20.431997    2.698430    16.430454    3.550442    -0.598475    -31.037243    0.268020    -1.693557    -1.498285    -6.315342    -0.559963    -0.959004    -6.297646    -3.001121    -13.192262    2.940757    -1.694449    24.767866    -1.356239    -0.083258    -2.113839    -5.278182    -0.144591    1.763175    -5.281876    -0.066994    7.461666    -5.255549    -0.994164    -1.968001    -0.954204    3.662468    -5.750684    -5.899102    8.092731    0.000000    0.000000    0.000000    -10.486440    -0.105903    0.297253    4.069601    -6.986084    -2.155014    1.132454    -6.735839    -15.897943    0.000000    0.000000    0.000000    
-0.831030    0.875053    -0.297233    -8.910311    1.615953    91.321480    -3.309324    -18.896835    0.430828    1.569430    8.957558    0.198986    2.969998    27.311529    0.509265    -3.562594    20.442690    2.709365    16.425892    3.546516    -0.615284    -31.046631    0.293574    -1.683400    -1.481493    -6.309551    -0.526096    -0.642702    -6.299502    -3.014685    -13.190969    2.940317    -1.684609    24.760313    -1.317158    -0.059355    -2.111596    -5.284809    -0.157984    1.764647    -5.288428    -0.046962    7.464358    -5.264419    -0.959747    -1.965309    -0.951645    3.653983    -5.752855    -5.909058    8.086994    0.000000    0.000000    0.000000    -10.482484    -0.112036    0.307738    4.062456    -6.976021    -2.172093    1.376277    -6.911980    -15.677374    0.000000    0.000000    0.000000    
-0.831029    0.875017    -0.297197    -8.915288    1.612085    91.319420    -3.289600    -18.911245    0.436341    1.545987    8.983195    0.201407    2.990131    27.353304    0.498260    -3.612702    20.439329    2.721675    16.436584    3.559519    -0.594311    -31.057705    0.327871    -1.723423    -1.481048    -6.336217    -0.509701    -0.670129    -6.325177    -3.025224    -13.193463    2.927057    -1.659369    24.785885    -1.234054    -0.033539    -2.150218    -5.313512    -0.203868    1.781390    -5.317634    -0.019208    7.472233    -5.254928    -0.968960    -1.833415    -1.039196    2.996406    -5.782808    -5.908318    8.410283    0.000000    0.000000    0.000000    -10.474641    -0.119685    0.314655    4.074593    -6.987161    -2.173543    1.125920    -6.752805    -15.909704    0.000000    0.000000    0.000000    
-0.831032    0.875009    -0.297164    -8.917655    1.610225    91.320183    -3.284822    -18.925573    0.440407    1.561819    9.010224    0.201030    2.939098    27.383381    0.526027    -3.598415    20.471708    2.728711    16.420786    3.548186    -0.609447    -31.073019    0.367893    -1.715125    -1.480647    -6.378815    -0.512932    -0.700895    -6.367079    -3.013613    -13.217672    2.935340    -1.653810    24.790161    -1.224505    0.000197    -2.156124    -5.309759    -0.214601    1.776424    -5.314078    -0.019037    7.477261    -5.257461    -0.986145    -1.836696    -1.036934    3.022656    -5.800431    -5.918295    8.409956    0.000000    0.000000    0.000000    -10.476066    -0.120105    0.298844    4.064653    -6.975095    -2.150430    1.379507    -6.926033    -15.672175    0.000000    0.000000    0.000000    
-0.831028    0.875008    -0.297112    -8.917366    1.607297    91.318192    -3.277606    -18.938114    0.448756    1.560301    9.039416    0.203166    2.941896    27.411516    0.515931    -3.616480    20.495667    2.726263    16.416269    3.555505    -0.599858    -31.080282    0.358417    -1.744240    -1.489510    -6.414907    -0.520342    -0.677228    -6.404018    -2.998431    -13.214162    2.919655    -1.640684    24.777723    -1.164957    0.016221    -2.162236    -5.323391    -0.230711    1.795347    -5.327778    -0.003162    7.484637    -5.254122    -0.972814    -1.844715    -1.072072    2.990347    -5.648944    -5.925992    8.467525    0.000000    0.000000    0.000000    -10.458985    -0.132868    0.316818    4.089344    -6.980095    -2.144287    1.233745    -6.757480    -15.964458    0.000000    0.000000    0.000000    
